<mxfile host="app.diagrams.net" agent="Mozilla/5.0 (Windows NT 10.0; Win64; x64) AppleWebKit/537.36 (KHTML, like Gecko) Chrome/132.0.0.0 Safari/537.36 OPR/117.0.0.0" version="26.2.9">
  <diagram id="C5RBs43oDa-KdzZeNtuy" name="Page-1">
    <mxGraphModel dx="2104" dy="1857" grid="1" gridSize="10" guides="1" tooltips="1" connect="1" arrows="1" fold="1" page="1" pageScale="1" pageWidth="827" pageHeight="1169" background="none" math="0" shadow="0">
      <root>
        <mxCell id="WIyWlLk6GJQsqaUBKTNV-0" />
        <mxCell id="WIyWlLk6GJQsqaUBKTNV-1" parent="WIyWlLk6GJQsqaUBKTNV-0" />
        <mxCell id="zkfFHV4jXpPFQw0GAbJ--17" value="Paciente" style="swimlane;fontStyle=0;align=center;verticalAlign=top;childLayout=stackLayout;horizontal=1;startSize=26;horizontalStack=0;resizeParent=1;resizeLast=0;collapsible=1;marginBottom=0;rounded=0;shadow=0;strokeWidth=1;labelBackgroundColor=none;fillColor=#5D7F99;strokeColor=#D0CEE2;fontColor=#1A1A1A;" parent="WIyWlLk6GJQsqaUBKTNV-1" vertex="1">
          <mxGeometry x="480" y="40" width="190" height="230" as="geometry">
            <mxRectangle x="550" y="140" width="160" height="26" as="alternateBounds" />
          </mxGeometry>
        </mxCell>
        <mxCell id="5M9W27GqaEcsZu8uXk_W-9" value="- direccion: String" style="text;align=left;verticalAlign=top;spacingLeft=4;spacingRight=4;overflow=hidden;rotatable=0;points=[[0,0.5],[1,0.5]];portConstraint=eastwest;rounded=0;shadow=0;html=0;labelBackgroundColor=none;fontColor=#1A1A1A;" parent="zkfFHV4jXpPFQw0GAbJ--17" vertex="1">
          <mxGeometry y="26" width="190" height="44" as="geometry" />
        </mxCell>
        <mxCell id="haPH8-KAVrqiOfM5jcEY-29" value="+ constructor(String: direccion)&#xa;&#xa;+ getDireccion(): String: direccion&#xa;+ setDireccion(String: direccion)&#xa;&#xa;+ registrarDatos()&#xa;+ actualizaeDatos()&#xa;+ solicitarCita()&#xa;+ cancelarCita()&#xa;+ verHistorial()" style="text;align=left;verticalAlign=top;spacingLeft=4;spacingRight=4;overflow=hidden;rotatable=0;points=[[0,0.5],[1,0.5]];portConstraint=eastwest;rounded=0;shadow=0;html=0;labelBackgroundColor=none;fontColor=#1A1A1A;fillColor=none;strokeColor=light-dark(#000000,#808080);opacity=40;" parent="zkfFHV4jXpPFQw0GAbJ--17" vertex="1">
          <mxGeometry y="70" width="190" height="160" as="geometry" />
        </mxCell>
        <mxCell id="5M9W27GqaEcsZu8uXk_W-0" value="Cita" style="swimlane;fontStyle=0;align=center;verticalAlign=top;childLayout=stackLayout;horizontal=1;startSize=26;horizontalStack=0;resizeParent=1;resizeLast=0;collapsible=1;marginBottom=0;rounded=0;shadow=0;strokeWidth=1;labelBackgroundColor=none;fillColor=#5D7F99;strokeColor=#D0CEE2;fontColor=#1A1A1A;" parent="WIyWlLk6GJQsqaUBKTNV-1" vertex="1">
          <mxGeometry x="920" y="-160" width="180" height="240" as="geometry">
            <mxRectangle x="550" y="140" width="160" height="26" as="alternateBounds" />
          </mxGeometry>
        </mxCell>
        <mxCell id="5M9W27GqaEcsZu8uXk_W-1" value="- fecha: LocalDate" style="text;align=left;verticalAlign=top;spacingLeft=4;spacingRight=4;overflow=hidden;rotatable=0;points=[[0,0.5],[1,0.5]];portConstraint=eastwest;labelBackgroundColor=none;fontColor=#1A1A1A;" parent="5M9W27GqaEcsZu8uXk_W-0" vertex="1">
          <mxGeometry y="26" width="180" height="26" as="geometry" />
        </mxCell>
        <mxCell id="5M9W27GqaEcsZu8uXk_W-2" value="- hora: String" style="text;align=left;verticalAlign=top;spacingLeft=4;spacingRight=4;overflow=hidden;rotatable=0;points=[[0,0.5],[1,0.5]];portConstraint=eastwest;rounded=0;shadow=0;html=0;labelBackgroundColor=none;fontColor=#1A1A1A;" parent="5M9W27GqaEcsZu8uXk_W-0" vertex="1">
          <mxGeometry y="52" width="180" height="26" as="geometry" />
        </mxCell>
        <mxCell id="haPH8-KAVrqiOfM5jcEY-32" value="+ constructor(LocalDate: fecha,&#xa;String: hora)&#xa;&#xa;+ getFecha(): LocalDate: fecha&#xa;+getHora(): String: hora&#xa;+setFecha(LocalDate: fecha)&#xa;+setHora(String: hora)&#xa;&#xa;+ cambiarEstado()&#xa;+ reprogramar()&#xa;" style="text;align=left;verticalAlign=top;spacingLeft=4;spacingRight=4;overflow=hidden;rotatable=0;points=[[0,0.5],[1,0.5]];portConstraint=eastwest;rounded=0;shadow=0;html=0;labelBackgroundColor=none;fontColor=#1A1A1A;fillColor=none;strokeColor=light-dark(#000000,#808080);opacity=40;" parent="5M9W27GqaEcsZu8uXk_W-0" vertex="1">
          <mxGeometry y="78" width="180" height="162" as="geometry" />
        </mxCell>
        <mxCell id="5M9W27GqaEcsZu8uXk_W-12" value="Medico" style="swimlane;fontStyle=0;align=center;verticalAlign=top;childLayout=stackLayout;horizontal=1;startSize=26;horizontalStack=0;resizeParent=1;resizeLast=0;collapsible=1;marginBottom=0;rounded=0;shadow=0;strokeWidth=1;labelBackgroundColor=none;fillColor=#5D7F99;strokeColor=#D0CEE2;fontColor=#1A1A1A;" parent="WIyWlLk6GJQsqaUBKTNV-1" vertex="1">
          <mxGeometry x="130" y="40" width="190" height="190" as="geometry">
            <mxRectangle x="550" y="140" width="160" height="26" as="alternateBounds" />
          </mxGeometry>
        </mxCell>
        <mxCell id="haPH8-KAVrqiOfM5jcEY-19" value="+ consultarHistorial()&#xa;+ generarRegistro()&#xa;+ registrarDiagnostico()&#xa;+ agregarHorario()&#xa;+ modificarHorario()" style="text;align=left;verticalAlign=top;spacingLeft=4;spacingRight=4;overflow=hidden;rotatable=0;points=[[0,0.5],[1,0.5]];portConstraint=eastwest;rounded=0;shadow=0;html=0;labelBackgroundColor=none;fontColor=#1A1A1A;" parent="5M9W27GqaEcsZu8uXk_W-12" vertex="1">
          <mxGeometry y="26" width="190" height="144" as="geometry" />
        </mxCell>
        <mxCell id="5M9W27GqaEcsZu8uXk_W-19" value="&lt;&lt;abstract&gt;&gt;&#xa;Persona" style="swimlane;fontStyle=0;align=center;verticalAlign=top;childLayout=stackLayout;horizontal=1;startSize=40;horizontalStack=0;resizeParent=1;resizeLast=0;collapsible=1;marginBottom=0;rounded=0;shadow=0;strokeWidth=1;labelBackgroundColor=none;fillColor=#5D7F99;strokeColor=#D0CEE2;fontColor=#1A1A1A;" parent="WIyWlLk6GJQsqaUBKTNV-1" vertex="1">
          <mxGeometry x="320" y="-240" width="160" height="190" as="geometry">
            <mxRectangle x="550" y="140" width="160" height="26" as="alternateBounds" />
          </mxGeometry>
        </mxCell>
        <mxCell id="5M9W27GqaEcsZu8uXk_W-20" value="# nombre String" style="text;align=left;verticalAlign=top;spacingLeft=4;spacingRight=4;overflow=hidden;rotatable=0;points=[[0,0.5],[1,0.5]];portConstraint=eastwest;rounded=0;shadow=0;html=0;labelBackgroundColor=none;fontColor=#1A1A1A;" parent="5M9W27GqaEcsZu8uXk_W-19" vertex="1">
          <mxGeometry y="40" width="160" height="26" as="geometry" />
        </mxCell>
        <mxCell id="5M9W27GqaEcsZu8uXk_W-21" value="# apellido: String" style="text;align=left;verticalAlign=top;spacingLeft=4;spacingRight=4;overflow=hidden;rotatable=0;points=[[0,0.5],[1,0.5]];portConstraint=eastwest;labelBackgroundColor=none;fontColor=#1A1A1A;" parent="5M9W27GqaEcsZu8uXk_W-19" vertex="1">
          <mxGeometry y="66" width="160" height="26" as="geometry" />
        </mxCell>
        <mxCell id="5M9W27GqaEcsZu8uXk_W-22" value="# docIdentidad: String" style="text;align=left;verticalAlign=top;spacingLeft=4;spacingRight=4;overflow=hidden;rotatable=0;points=[[0,0.5],[1,0.5]];portConstraint=eastwest;rounded=0;shadow=0;html=0;labelBackgroundColor=none;fontColor=#1A1A1A;" parent="5M9W27GqaEcsZu8uXk_W-19" vertex="1">
          <mxGeometry y="92" width="160" height="26" as="geometry" />
        </mxCell>
        <mxCell id="5M9W27GqaEcsZu8uXk_W-23" value="# id: String" style="text;align=left;verticalAlign=top;spacingLeft=4;spacingRight=4;overflow=hidden;rotatable=0;points=[[0,0.5],[1,0.5]];portConstraint=eastwest;rounded=0;shadow=0;html=0;labelBackgroundColor=none;fontColor=#1A1A1A;" parent="5M9W27GqaEcsZu8uXk_W-19" vertex="1">
          <mxGeometry y="118" width="160" height="26" as="geometry" />
        </mxCell>
        <mxCell id="5M9W27GqaEcsZu8uXk_W-24" value="# telefono: String" style="text;align=left;verticalAlign=top;spacingLeft=4;spacingRight=4;overflow=hidden;rotatable=0;points=[[0,0.5],[1,0.5]];portConstraint=eastwest;rounded=0;shadow=0;html=0;labelBackgroundColor=none;fontColor=#1A1A1A;" parent="5M9W27GqaEcsZu8uXk_W-19" vertex="1">
          <mxGeometry y="144" width="160" height="26" as="geometry" />
        </mxCell>
        <mxCell id="5M9W27GqaEcsZu8uXk_W-29" value="Hospital" style="swimlane;fontStyle=0;align=center;verticalAlign=top;childLayout=stackLayout;horizontal=1;startSize=26;horizontalStack=0;resizeParent=1;resizeLast=0;collapsible=1;marginBottom=0;rounded=0;shadow=0;strokeWidth=1;labelBackgroundColor=none;fillColor=#5D7F99;strokeColor=#D0CEE2;fontColor=#1A1A1A;" parent="WIyWlLk6GJQsqaUBKTNV-1" vertex="1">
          <mxGeometry x="310" y="-810" width="180" height="410" as="geometry">
            <mxRectangle x="550" y="140" width="160" height="26" as="alternateBounds" />
          </mxGeometry>
        </mxCell>
        <mxCell id="hL7iLJ2E9n5kHAkAKHmn-4" value="- nombre: String&#xa;&#xa;- nit: String " style="text;align=left;verticalAlign=top;spacingLeft=4;spacingRight=4;overflow=hidden;rotatable=0;points=[[0,0.5],[1,0.5]];portConstraint=eastwest;rounded=0;shadow=0;html=0;labelBackgroundColor=none;fontColor=#1A1A1A;" parent="5M9W27GqaEcsZu8uXk_W-29" vertex="1">
          <mxGeometry y="26" width="180" height="74" as="geometry" />
        </mxCell>
        <mxCell id="haPH8-KAVrqiOfM5jcEY-30" value="+ constructor(String nombre, &#xa;String nit)&#xa;&#xa;+ getNombre(): String: id&#xa;+ getNit(): String: nit&#xa;+setNombre(String: nombre)&#xa;+setNit(String nit)&#xa;&#xa;+ agregarPaciente()&#xa;+ mostrarPaciente()&#xa;+ modificarPaciente()&#xa;+ eliminarPaciente()&#xa;+ agregarMedico()&#xa;+ mostrarMedico()&#xa;+ modificarMedico&#xa;+ eliminarMedico()&#xa;+ agregarCita()&#xa;+ mostrarCita()&#xa;+ modificarCita()&#xa;+ eliminarCita()&#xa;+ buscarMedicoEspecialidad()" style="text;align=left;verticalAlign=top;spacingLeft=4;spacingRight=4;overflow=hidden;rotatable=0;points=[[0,0.5],[1,0.5]];portConstraint=eastwest;rounded=0;shadow=0;html=0;labelBackgroundColor=none;fontColor=#1A1A1A;fillColor=none;strokeColor=light-dark(#000000,#808080);opacity=40;" parent="5M9W27GqaEcsZu8uXk_W-29" vertex="1">
          <mxGeometry y="100" width="180" height="310" as="geometry" />
        </mxCell>
        <mxCell id="5M9W27GqaEcsZu8uXk_W-31" value="HistorialMedico" style="swimlane;fontStyle=0;align=center;verticalAlign=top;childLayout=stackLayout;horizontal=1;startSize=26;horizontalStack=0;resizeParent=1;resizeLast=0;collapsible=1;marginBottom=0;rounded=0;shadow=0;strokeWidth=1;labelBackgroundColor=none;fillColor=#5D7F99;strokeColor=#D0CEE2;fontColor=#1A1A1A;" parent="WIyWlLk6GJQsqaUBKTNV-1" vertex="1">
          <mxGeometry x="500" y="360" width="160" height="90" as="geometry">
            <mxRectangle x="550" y="140" width="160" height="26" as="alternateBounds" />
          </mxGeometry>
        </mxCell>
        <mxCell id="haPH8-KAVrqiOfM5jcEY-33" value="+ agregarRegistro()&#xa;+ verRegistros()" style="text;align=left;verticalAlign=top;spacingLeft=4;spacingRight=4;overflow=hidden;rotatable=0;points=[[0,0.5],[1,0.5]];portConstraint=eastwest;rounded=0;shadow=0;html=0;labelBackgroundColor=none;fontColor=#1A1A1A;" parent="5M9W27GqaEcsZu8uXk_W-31" vertex="1">
          <mxGeometry y="26" width="160" height="64" as="geometry" />
        </mxCell>
        <mxCell id="hL7iLJ2E9n5kHAkAKHmn-5" value="&lt;&lt;Enum&gt;&gt;&#xa;EstadoCita" style="swimlane;fontStyle=0;align=center;verticalAlign=top;childLayout=stackLayout;horizontal=1;startSize=40;horizontalStack=0;resizeParent=1;resizeLast=0;collapsible=1;marginBottom=0;rounded=0;shadow=0;strokeWidth=1;labelBackgroundColor=none;fillColor=#5D7F99;strokeColor=#D0CEE2;fontColor=#1A1A1A;" parent="WIyWlLk6GJQsqaUBKTNV-1" vertex="1">
          <mxGeometry x="1241" y="-160" width="160" height="190" as="geometry">
            <mxRectangle x="550" y="140" width="160" height="26" as="alternateBounds" />
          </mxGeometry>
        </mxCell>
        <mxCell id="hL7iLJ2E9n5kHAkAKHmn-6" value="PROGRAMADA" style="text;align=left;verticalAlign=top;spacingLeft=4;spacingRight=4;overflow=hidden;rotatable=0;points=[[0,0.5],[1,0.5]];portConstraint=eastwest;labelBackgroundColor=none;fontColor=#1A1A1A;" parent="hL7iLJ2E9n5kHAkAKHmn-5" vertex="1">
          <mxGeometry y="40" width="160" height="26" as="geometry" />
        </mxCell>
        <mxCell id="hL7iLJ2E9n5kHAkAKHmn-7" value="REALIZADA&#xa;&#xa;CANCELADA " style="text;align=left;verticalAlign=top;spacingLeft=4;spacingRight=4;overflow=hidden;rotatable=0;points=[[0,0.5],[1,0.5]];portConstraint=eastwest;rounded=0;shadow=0;html=0;labelBackgroundColor=none;fontColor=#1A1A1A;" parent="hL7iLJ2E9n5kHAkAKHmn-5" vertex="1">
          <mxGeometry y="66" width="160" height="64" as="geometry" />
        </mxCell>
        <mxCell id="hL7iLJ2E9n5kHAkAKHmn-8" value="&lt;&lt;Enum&gt;&gt;&#xa;Especialidad" style="swimlane;fontStyle=0;align=center;verticalAlign=top;childLayout=stackLayout;horizontal=1;startSize=40;horizontalStack=0;resizeParent=1;resizeLast=0;collapsible=1;marginBottom=0;rounded=0;shadow=0;strokeWidth=1;labelBackgroundColor=none;fillColor=#5D7F99;strokeColor=#D0CEE2;fontColor=#1A1A1A;" parent="WIyWlLk6GJQsqaUBKTNV-1" vertex="1">
          <mxGeometry x="-160" y="-30" width="160" height="290" as="geometry">
            <mxRectangle x="550" y="140" width="160" height="26" as="alternateBounds" />
          </mxGeometry>
        </mxCell>
        <mxCell id="hL7iLJ2E9n5kHAkAKHmn-9" value="MEDICINA_GENERAL" style="text;align=left;verticalAlign=top;spacingLeft=4;spacingRight=4;overflow=hidden;rotatable=0;points=[[0,0.5],[1,0.5]];portConstraint=eastwest;labelBackgroundColor=none;fontColor=#1A1A1A;" parent="hL7iLJ2E9n5kHAkAKHmn-8" vertex="1">
          <mxGeometry y="40" width="160" height="26" as="geometry" />
        </mxCell>
        <mxCell id="hL7iLJ2E9n5kHAkAKHmn-10" value="PEDIATRIA&#xa;&#xa;ODONTOLOGIA&#xa;&#xa;CARDIAOLOGIA&#xa;&#xa;PSIQUIATRA&#xa;&#xa;DERMATOLOGIA&#xa;&#xa;NEUROLOGIA&#xa;&#xa;GINECOLOGIA&#xa;&#xa;UROLOGIA&#xa;&#xa; " style="text;align=left;verticalAlign=top;spacingLeft=4;spacingRight=4;overflow=hidden;rotatable=0;points=[[0,0.5],[1,0.5]];portConstraint=eastwest;rounded=0;shadow=0;html=0;labelBackgroundColor=none;fontColor=#1A1A1A;" parent="hL7iLJ2E9n5kHAkAKHmn-8" vertex="1">
          <mxGeometry y="66" width="160" height="224" as="geometry" />
        </mxCell>
        <mxCell id="hL7iLJ2E9n5kHAkAKHmn-11" value="RegistroMedico" style="swimlane;fontStyle=0;align=center;verticalAlign=top;childLayout=stackLayout;horizontal=1;startSize=26;horizontalStack=0;resizeParent=1;resizeLast=0;collapsible=1;marginBottom=0;rounded=0;shadow=0;strokeWidth=1;labelBackgroundColor=none;fillColor=#5D7F99;strokeColor=#D0CEE2;fontColor=#1A1A1A;" parent="WIyWlLk6GJQsqaUBKTNV-1" vertex="1">
          <mxGeometry x="880" y="280" width="250" height="280" as="geometry">
            <mxRectangle x="550" y="140" width="160" height="26" as="alternateBounds" />
          </mxGeometry>
        </mxCell>
        <mxCell id="hL7iLJ2E9n5kHAkAKHmn-12" value="- diagnostico: String&#xa;&#xa;- tratamiento: String&#xa;&#xa;- observaciones: String" style="text;align=left;verticalAlign=top;spacingLeft=4;spacingRight=4;overflow=hidden;rotatable=0;points=[[0,0.5],[1,0.5]];portConstraint=eastwest;rounded=0;shadow=0;html=0;labelBackgroundColor=none;fontColor=#1A1A1A;" parent="hL7iLJ2E9n5kHAkAKHmn-11" vertex="1">
          <mxGeometry y="26" width="250" height="84" as="geometry" />
        </mxCell>
        <mxCell id="haPH8-KAVrqiOfM5jcEY-35" value="+ constructor(String diagnostico, &#xa;String tratamiento, String &#xa;observaciones)&#xa;&#xa;+ getDiagnostico(): String diagnostico&#xa;+ getTratamiento(): String tratamiento&#xa;+ getObservaciones(): String observaciones&#xa;+ setDiagnostico(String diagnostico)&#xa;+ setTratamiento(String tratamiento)&#xa;+ setObservaciones(String observavciones)&#xa;&#xa;&#xa;" style="text;align=left;verticalAlign=top;spacingLeft=4;spacingRight=4;overflow=hidden;rotatable=0;points=[[0,0.5],[1,0.5]];portConstraint=eastwest;rounded=0;shadow=0;html=0;labelBackgroundColor=none;fontColor=#1A1A1A;fillColor=none;strokeColor=light-dark(#000000,#808080);opacity=40;" parent="hL7iLJ2E9n5kHAkAKHmn-11" vertex="1">
          <mxGeometry y="110" width="250" height="170" as="geometry" />
        </mxCell>
        <mxCell id="haPH8-KAVrqiOfM5jcEY-2" value="Extends" style="endArrow=block;endSize=16;endFill=0;html=1;rounded=0;exitX=0.5;exitY=0;exitDx=0;exitDy=0;entryX=0;entryY=0.5;entryDx=0;entryDy=0;" parent="WIyWlLk6GJQsqaUBKTNV-1" source="5M9W27GqaEcsZu8uXk_W-12" target="5M9W27GqaEcsZu8uXk_W-24" edge="1">
          <mxGeometry width="160" relative="1" as="geometry">
            <mxPoint x="340" y="20" as="sourcePoint" />
            <mxPoint x="260" y="-120" as="targetPoint" />
          </mxGeometry>
        </mxCell>
        <mxCell id="haPH8-KAVrqiOfM5jcEY-4" value="Extends" style="endArrow=block;endSize=16;endFill=0;html=1;rounded=0;exitX=0.5;exitY=0;exitDx=0;exitDy=0;entryX=1;entryY=0.5;entryDx=0;entryDy=0;" parent="WIyWlLk6GJQsqaUBKTNV-1" source="zkfFHV4jXpPFQw0GAbJ--17" target="5M9W27GqaEcsZu8uXk_W-24" edge="1">
          <mxGeometry width="160" relative="1" as="geometry">
            <mxPoint x="530" y="50" as="sourcePoint" />
            <mxPoint x="610" y="-87" as="targetPoint" />
          </mxGeometry>
        </mxCell>
        <mxCell id="haPH8-KAVrqiOfM5jcEY-6" value="" style="endArrow=block;endFill=1;html=1;edgeStyle=orthogonalEdgeStyle;align=left;verticalAlign=top;rounded=0;entryX=1;entryY=0.5;entryDx=0;entryDy=0;" parent="WIyWlLk6GJQsqaUBKTNV-1" target="hL7iLJ2E9n5kHAkAKHmn-10" edge="1">
          <mxGeometry x="-1" relative="1" as="geometry">
            <mxPoint x="130" y="148" as="sourcePoint" />
            <mxPoint x="210" y="20" as="targetPoint" />
          </mxGeometry>
        </mxCell>
        <mxCell id="haPH8-KAVrqiOfM5jcEY-9" value="" style="endArrow=open;html=1;endSize=12;startArrow=diamondThin;startSize=14;startFill=1;edgeStyle=orthogonalEdgeStyle;align=left;verticalAlign=bottom;rounded=0;entryX=0.5;entryY=0;entryDx=0;entryDy=0;" parent="WIyWlLk6GJQsqaUBKTNV-1" source="haPH8-KAVrqiOfM5jcEY-30" target="5M9W27GqaEcsZu8uXk_W-19" edge="1">
          <mxGeometry x="-1" y="3" relative="1" as="geometry">
            <mxPoint x="410" y="-330" as="sourcePoint" />
            <mxPoint x="490" y="-300" as="targetPoint" />
            <Array as="points">
              <mxPoint x="400" y="-280" />
              <mxPoint x="400" y="-280" />
            </Array>
          </mxGeometry>
        </mxCell>
        <mxCell id="haPH8-KAVrqiOfM5jcEY-10" value="&lt;b&gt;&lt;font style=&quot;font-size: 14px;&quot;&gt;*&lt;/font&gt;&lt;/b&gt;" style="text;html=1;align=center;verticalAlign=middle;resizable=0;points=[];autosize=1;strokeColor=none;fillColor=none;" parent="WIyWlLk6GJQsqaUBKTNV-1" vertex="1">
          <mxGeometry x="400" y="-270" width="30" height="30" as="geometry" />
        </mxCell>
        <mxCell id="haPH8-KAVrqiOfM5jcEY-13" value="&amp;nbsp; &amp;nbsp;1" style="endArrow=open;html=1;endSize=12;startArrow=diamondThin;startSize=14;startFill=1;edgeStyle=orthogonalEdgeStyle;align=left;verticalAlign=bottom;rounded=0;entryX=0.5;entryY=0;entryDx=0;entryDy=0;exitX=1;exitY=0.5;exitDx=0;exitDy=0;" parent="WIyWlLk6GJQsqaUBKTNV-1" source="hL7iLJ2E9n5kHAkAKHmn-4" target="5M9W27GqaEcsZu8uXk_W-0" edge="1">
          <mxGeometry x="-1" y="3" relative="1" as="geometry">
            <mxPoint x="780" y="-550" as="sourcePoint" />
            <mxPoint x="759.4100000000001" y="-320" as="targetPoint" />
          </mxGeometry>
        </mxCell>
        <mxCell id="haPH8-KAVrqiOfM5jcEY-17" value="1" style="text;html=1;align=center;verticalAlign=middle;resizable=0;points=[];autosize=1;strokeColor=none;fillColor=none;" parent="WIyWlLk6GJQsqaUBKTNV-1" vertex="1">
          <mxGeometry x="399" y="-400" width="30" height="30" as="geometry" />
        </mxCell>
        <mxCell id="haPH8-KAVrqiOfM5jcEY-18" value="&lt;b&gt;&lt;font style=&quot;font-size: 14px;&quot;&gt;*&lt;/font&gt;&lt;/b&gt;" style="text;html=1;align=center;verticalAlign=middle;resizable=0;points=[];autosize=1;strokeColor=none;fillColor=none;" parent="WIyWlLk6GJQsqaUBKTNV-1" vertex="1">
          <mxGeometry x="170" width="30" height="30" as="geometry" />
        </mxCell>
        <mxCell id="haPH8-KAVrqiOfM5jcEY-36" value="" style="endArrow=open;html=1;endSize=12;startArrow=diamondThin;startSize=14;startFill=1;edgeStyle=orthogonalEdgeStyle;align=left;verticalAlign=bottom;rounded=0;entryX=0.628;entryY=-0.016;entryDx=0;entryDy=0;entryPerimeter=0;exitX=0.993;exitY=0.613;exitDx=0;exitDy=0;exitPerimeter=0;" parent="WIyWlLk6GJQsqaUBKTNV-1" source="haPH8-KAVrqiOfM5jcEY-30" target="zkfFHV4jXpPFQw0GAbJ--17" edge="1">
          <mxGeometry x="-1" y="3" relative="1" as="geometry">
            <mxPoint x="500" y="-520" as="sourcePoint" />
            <mxPoint x="600" y="-250" as="targetPoint" />
            <Array as="points">
              <mxPoint x="599" y="-520" />
            </Array>
          </mxGeometry>
        </mxCell>
        <mxCell id="haPH8-KAVrqiOfM5jcEY-37" value="1" style="text;html=1;align=center;verticalAlign=middle;resizable=0;points=[];autosize=1;strokeColor=none;fillColor=none;" parent="WIyWlLk6GJQsqaUBKTNV-1" vertex="1">
          <mxGeometry x="490" y="-550" width="30" height="30" as="geometry" />
        </mxCell>
        <mxCell id="haPH8-KAVrqiOfM5jcEY-38" value="" style="endArrow=open;html=1;endSize=12;startArrow=diamondThin;startSize=14;startFill=1;edgeStyle=orthogonalEdgeStyle;align=left;verticalAlign=bottom;rounded=0;exitX=0;exitY=0.577;exitDx=0;exitDy=0;exitPerimeter=0;entryX=0.365;entryY=-0.011;entryDx=0;entryDy=0;entryPerimeter=0;" parent="WIyWlLk6GJQsqaUBKTNV-1" target="5M9W27GqaEcsZu8uXk_W-12" edge="1">
          <mxGeometry x="-1" y="3" relative="1" as="geometry">
            <mxPoint x="310" y="-519.98" as="sourcePoint" />
            <mxPoint x="160" y="-40" as="targetPoint" />
            <Array as="points">
              <mxPoint x="200" y="-520" />
              <mxPoint x="200" y="-40" />
            </Array>
          </mxGeometry>
        </mxCell>
        <mxCell id="haPH8-KAVrqiOfM5jcEY-39" value="&lt;b&gt;&lt;font style=&quot;font-size: 14px;&quot;&gt;*&lt;/font&gt;&lt;/b&gt;" style="text;html=1;align=center;verticalAlign=middle;resizable=0;points=[];autosize=1;strokeColor=none;fillColor=none;" parent="WIyWlLk6GJQsqaUBKTNV-1" vertex="1">
          <mxGeometry x="600" width="30" height="30" as="geometry" />
        </mxCell>
        <mxCell id="haPH8-KAVrqiOfM5jcEY-40" value="" style="endArrow=classic;html=1;rounded=0;" parent="WIyWlLk6GJQsqaUBKTNV-1" edge="1">
          <mxGeometry width="50" height="50" relative="1" as="geometry">
            <mxPoint x="1100" y="-40" as="sourcePoint" />
            <mxPoint x="1240" y="-40" as="targetPoint" />
          </mxGeometry>
        </mxCell>
        <mxCell id="haPH8-KAVrqiOfM5jcEY-41" value="1" style="text;html=1;align=center;verticalAlign=middle;resizable=0;points=[];autosize=1;strokeColor=none;fillColor=none;" parent="WIyWlLk6GJQsqaUBKTNV-1" vertex="1">
          <mxGeometry x="280" y="-550" width="30" height="30" as="geometry" />
        </mxCell>
        <mxCell id="haPH8-KAVrqiOfM5jcEY-42" value="&lt;b&gt;&lt;font style=&quot;font-size: 14px;&quot;&gt;*&lt;/font&gt;&lt;/b&gt;" style="text;html=1;align=center;verticalAlign=middle;resizable=0;points=[];autosize=1;strokeColor=none;fillColor=none;" parent="WIyWlLk6GJQsqaUBKTNV-1" vertex="1">
          <mxGeometry x="1010" y="-200" width="30" height="30" as="geometry" />
        </mxCell>
        <mxCell id="haPH8-KAVrqiOfM5jcEY-43" value="" style="endArrow=classic;html=1;rounded=0;exitX=0.526;exitY=1.006;exitDx=0;exitDy=0;exitPerimeter=0;entryX=0.5;entryY=0;entryDx=0;entryDy=0;" parent="WIyWlLk6GJQsqaUBKTNV-1" source="haPH8-KAVrqiOfM5jcEY-29" target="5M9W27GqaEcsZu8uXk_W-31" edge="1">
          <mxGeometry width="50" height="50" relative="1" as="geometry">
            <mxPoint x="740" y="390" as="sourcePoint" />
            <mxPoint x="790" y="340" as="targetPoint" />
          </mxGeometry>
        </mxCell>
        <mxCell id="haPH8-KAVrqiOfM5jcEY-44" value="" style="endArrow=classic;html=1;rounded=0;exitX=1;exitY=0.222;exitDx=0;exitDy=0;exitPerimeter=0;" parent="WIyWlLk6GJQsqaUBKTNV-1" source="haPH8-KAVrqiOfM5jcEY-33" edge="1">
          <mxGeometry width="50" height="50" relative="1" as="geometry">
            <mxPoint x="720" y="375.5" as="sourcePoint" />
            <mxPoint x="879" y="400" as="targetPoint" />
          </mxGeometry>
        </mxCell>
        <mxCell id="haPH8-KAVrqiOfM5jcEY-45" value="1" style="text;html=1;align=center;verticalAlign=middle;resizable=0;points=[];autosize=1;strokeColor=none;fillColor=none;" parent="WIyWlLk6GJQsqaUBKTNV-1" vertex="1">
          <mxGeometry x="660" y="370" width="30" height="30" as="geometry" />
        </mxCell>
        <mxCell id="haPH8-KAVrqiOfM5jcEY-46" value="&lt;b&gt;&lt;font style=&quot;font-size: 14px;&quot;&gt;*&lt;/font&gt;&lt;/b&gt;" style="text;html=1;align=center;verticalAlign=middle;resizable=0;points=[];autosize=1;strokeColor=none;fillColor=none;" parent="WIyWlLk6GJQsqaUBKTNV-1" vertex="1">
          <mxGeometry x="850" y="370" width="30" height="30" as="geometry" />
        </mxCell>
      </root>
    </mxGraphModel>
  </diagram>
</mxfile>
